<svg xmlns="http://www.w3.org/2000/svg" xmlns:xlink="http://www.w3.org/1999/xlink" width="500.87" height="106.67" version="1.1" viewBox="0 0 500.87 106.67"><g><g fill="#000000"><path transform="matrix(1.3333 0 0 -1.3333 180.67 77.785)" d="m0 0c4.021 0 8.041 0.985 11.733 3.692v9.19h-11.241v8.206h20.759v-21.662c-4.84-4.677-11.651-8.451-21.251-8.451-17.313 0-28.308 12.225-28.308 27.405s10.995 27.405 27.488 27.405c8.041 0 15.097-3.035 19.938-8.533l-6.974-6.892c-3.118 3.856-7.632 6.154-12.964 6.154-10.093 0-17.642-8.37-17.642-18.134 0-10.011 7.549-18.38 18.462-18.38"/><path transform="matrix(1.3333 0 0 -1.3333 243.57 78.113)" d="m0 0c6.564 0 11.405 5.415 11.405 11.488 0 6.071-4.841 11.487-11.405 11.487s-11.405-5.416-11.405-11.487c0-6.073 4.841-11.488 11.405-11.488m0-8.862c-11.488 0-20.595 9.108-20.595 20.35 0 11.241 9.107 20.348 20.595 20.348s20.595-9.107 20.595-20.348c0-11.242-9.107-20.35-20.595-20.35"/><path transform="matrix(1.3333 0 0 -1.3333 302.86 78.113)" d="m0 0c6.564 0 11.405 5.415 11.405 11.488 0 6.071-4.841 11.487-11.405 11.487s-11.405-5.416-11.405-11.487c0-6.073 4.841-11.488 11.405-11.488m0-8.862c-11.488 0-20.595 9.108-20.595 20.35 0 11.241 9.107 20.348 20.595 20.348s20.595-9.107 20.595-20.348c0-11.242-9.107-20.35-20.595-20.35"/><path transform="matrix(1.3333 0 0 -1.3333 362.15 47.48)" d="m0 0c-6.564 0-11.405-5.415-11.405-11.487s4.841-11.488 11.405-11.488 11.405 5.416 11.405 11.488-4.841 11.487-11.405 11.487m11.405 22.236h9.19v-53.252h-9.19v4.021c-2.872-3.036-7.138-4.841-11.979-4.841-11.159 0-20.021 9.436-20.021 20.349s8.862 20.349 20.021 20.349c4.841 0 9.107-1.805 11.979-4.841z"/><path transform="matrix(1.3333 0 0 -1.3333 410.29 53.607)" d="m0 0h10.42c7.878 0 11.734 4.102 11.734 10.42 0 6.319-3.856 10.421-11.734 10.421h-10.42zm22.893-26.421-12.39 21.087h-10.503v-21.087h-6.482v53.252h16.574c12.801 0 18.544-7.056 18.544-15.918 0-7.385-3.775-13.375-11.241-15.426l12.882-21.908z"/><path transform="matrix(1.3333 0 0 -1.3333 471.43 61.922)" d="m0 0-13.621 18.79h7.304l10.009-13.785 10.011 13.785h7.302l-13.62-18.872 14.688-20.103h-7.385l-11.077 15.098-10.913-15.098h-7.385z"/></g><g fill="#ffdb00"><path transform="matrix(1.3333 0 0 -1.3333 88.536 32.754)" d="m0 0h-10.967v10.967c0 7.511-6.089 13.599-13.599 13.599s-13.598-6.088-13.598-13.599v-38.164h38.164c7.51 0 13.598 6.088 13.598 13.599 0 7.51-6.088 13.598-13.598 13.598"/><path transform="matrix(1.3333 0 0 -1.3333 37.65 73.677)" d="m0 0v-11.144c0-7.51 6.088-13.598 13.598-13.598 7.511 0 13.599 6.088 13.599 13.598v11.144z"/><path transform="matrix(1.3333 0 0 -1.3333 32.747 32.754)" d="m0 0h-10.962c-7.51 0-13.599-6.088-13.599-13.598 0-7.511 6.089-13.599 13.599-13.599h10.962z"/></g></g></svg>