<svg xmlns="http://www.w3.org/2000/svg" xmlns:xlink="http://www.w3.org/1999/xlink" version="1.1" id="Layer_1" x="0px" y="0px" viewBox="0 0 554 435" style="enable-background:new 0 0 554 435;" xml:space="preserve"><style type="text/css">
	.Arched_x0020_Green{fill:url(#SVGID_1_);stroke:#FFFFFF;stroke-width:0.25;stroke-miterlimit:1;}
	.st0{fill:#004A98;}
	.st1{fill:#FFFFFF;}
</style><linearGradient id="SVGID_1_" gradientUnits="userSpaceOnUse" x1="-9" y1="1125" x2="-8.2929" y2="1124.2928"><stop offset="0" style="stop-color:#20AC4B"/><stop offset="0.9831" style="stop-color:#19361A"/></linearGradient><g><path class="st0" d="M538.47,156.31c-2.04,0-3.49,1.02-5.07,2.41c-5.94,5.52-19.52,16.61-36.32,23.75l31.27-49.4   c9.98-13.06,15.99-29.32,15.99-47.04C544.32,43.2,509.6,8.47,466.75,8.46c-29.64,0.01-55.41,16.67-68.47,41.11l-32.05,59.49V28.83   c0-8.74-7.11-15.83-15.88-15.83h-57.33c-7.25,0-13.35,4.84-15.25,11.46L249.5,58c0,0-22.89-32.56-22.94-32.66   c-2.86-4.6-6.99-8.57-10.94-10.46c-3.94-1.77-7.75-1.84-7.89-1.88H86.64c-11.39,0-20.66,17.06-23.02,24.16L8.99,128.33v228.65   c0,8.02,15.24,66.29,67.84,66.29c56.5,0,64.01-36.57,95.26-77.74c0,0,4.74-7.58,7.79,0.05c3.04,7.62,28.03,70.83,28.03,70.83   s7.76,9.92,17.53,9.92c0,0,45.73,0,60.98,0c5.2,0,8.38,0,17.53-14.48c9.14-14.49,33.54-45.73,33.54-45.73v44.96   c0,8.42,6.82,15.25,15.24,15.25h112.04c6.44,0,9.15-0.75,19.05-16l46.99-75.32L545,313.33V162.78   C544.96,159.2,542.05,156.31,538.47,156.31z M141.89,318.62c-37.55-0.05-67.93-30.42-68-67.98c0.07-37.54,30.45-67.92,68-67.99   c37.55,0.07,67.92,30.45,68,67.99C209.81,288.2,179.44,318.57,141.89,318.62z M356.65,69l-0.02-0.04v246.38   c0,3.51-2.85,6.36-6.36,6.36l-60.77-0.03c-6.28-17.15-37.36-100.79-53.97-125.88c-10.83-16.35-27.91-37.36-62.67-49.14   c-9.54-3.26-20.68-5.19-32.77-5.21c-21.07,0-45.08,5.91-68.38,21.12V43.12c0-8.31,8.54-19.01,17.43-19.01h116.55   c0,0,4.47-0.2,6.83,0.84c3.29,1.36,5.72,5.15,5.72,5.15l68.52,95.46l-0.01-96.74c0-3.46,2.81-6.26,6.27-6.26h57.37   c3.46,0,6.26,2.8,6.26,6.26V69z M466.75,18.06c37.55,0.06,67.92,30.43,68,67.97c-0.08,37.57-30.45,67.93-68,68   c-37.54-0.07-67.93-30.43-67.99-68C398.82,48.49,429.21,18.12,466.75,18.06z M535.41,309.56c0,3.61-8.41,12.12-16.8,12.12H406.75   c-1.42,0-7.36-2.01-7.36-12.72V174.61c12.27,6.83,38.28,24.01,67.33,24.07c0.65,0,1.28-0.02,1.89-0.03   c29.4-0.7,54.4-18.51,66.8-28.95V309.56z"/><path class="st1" d="M534.75,86.03c-0.08,37.57-30.45,67.93-68,68c-37.54-0.07-67.93-30.43-67.99-68   c0.06-37.54,30.45-67.91,67.99-67.97C504.3,18.12,534.67,48.49,534.75,86.03z"/><path class="st1" d="M535.41,169.7v139.86c0,3.61-8.41,12.12-16.8,12.12H406.75c-1.42,0-7.36-2.01-7.36-12.72V174.61   c12.27,6.83,38.28,24.01,67.33,24.07c0.65,0,1.28-0.02,1.89-0.03C498.01,197.95,523.01,180.14,535.41,169.7z"/><path class="st1" d="M356.65,28.82V69l-0.02-0.04v246.38c0,3.51-2.85,6.36-6.36,6.36l-60.77-0.03   c-6.28-17.15-37.36-100.79-53.97-125.88c-10.83-16.35-27.91-37.36-62.67-49.14c-9.54-3.26-20.68-5.19-32.77-5.21   c-21.07,0-45.08,5.91-68.38,21.12V43.12c0-8.31,8.54-19.01,17.43-19.01h116.55c0,0,4.47-0.2,6.83,0.84   c3.29,1.36,5.72,5.15,5.72,5.15l68.52,95.46l-0.01-96.74c0-3.46,2.81-6.26,6.27-6.26h57.37C353.85,22.56,356.65,25.36,356.65,28.82   z"/><path class="st1" d="M209.89,250.64c-0.08,37.56-30.45,67.93-68,67.98c-37.55-0.05-67.93-30.42-68-67.98   c0.07-37.54,30.45-67.92,68-67.99C179.44,182.72,209.81,213.1,209.89,250.64z"/></g></svg>